{"title":"Sexy Luna and Federica Tommasi","uid":7132780,"size":324511333,"categoryP":"porn","categoryS":"movie_clips","magnet":"?xt=urn:btih:a4ae06aa9bd74aefc84f13faafcf18cffd289297&amp;dn=Sexy+Luna+and+Federica+Tommasi&amp;tr=udp%3A%2F%2Ftracker.openbittorrent.com%3A80&amp;tr=udp%3A%2F%2Fopen.demonii.com%3A1337&amp;tr=udp%3A%2F%2Ftracker.coppersurfer.tk%3A6969&amp;tr=udp%3A%2F%2Fexodus.desync.com%3A6969","seeders":1,"leechers":0,"uploader":"tigris1968","files":2,"time":1332761727,"description":"Sexy Luna and Federica Tommasi\n &lt;a href=&quot;\nhttp://bayimg.com/HaNChaaDJ&quot; rel=&quot;nofollow&quot; target=&quot;_NEW&quot;&gt;\nhttp://bayimg.com/HaNChaaDJ&lt;/a&gt;\n\nmin = 32 ' 18 ''\n\nmb = 309 mb\n\n720 * 576 avi\n\n                              info\n\nGeneral\nComplete name                    : C:Downloads 2Sexy Luna and Federica TommasiSexy Luna and Federica Tommasi.avi\nFormat                           : AVI\nFormat/Info                      : Audio Video Interleave\nFile size                        : 309 MiB\nDuration                         : 32mn 18s\nOverall bit rate                 : 1 339 Kbps\nWriting application              : MEncoder SVN-r30881(20100311-gcc4.3.3)\nWriting library                  : MPlayer\n\nVideo\nID                               : 0\nFormat                           : MPEG-4 Visual\nFormat profile                   : Advanced Simple@L5\nFormat settings, BVOP            : 2\nFormat settings, QPel            : No\nFormat settings, GMC             : No warppoints\nFormat settings, Matrix          : Default (H.263)\nCodec ID                         : XVID\nCodec ID/Hint                    : XviD\nDuration                         : 32mn 18s\nBit rate                         : 1 199 Kbps\nWidth                            : 720 pixels\nHeight                           : 576 pixels\nDisplay aspect ratio             : 5:4\nFrame rate                       : 25.000 fps\nStandard                         : PAL\nColor space                      : YUV\nChroma subsampling               : 4:2:0\nBit depth                        : 8 bits\nScan type                        : Progressive\nCompression mode                 : Lossy\nBits/(Pixel*Frame)               : 0.116\nStream size                      : 277 MiB (90%)\nWriting library                  : XviD 1.2.1 (UTC 2008-12-04)\n\nAudio\nID                               : 1\nFormat                           : MPEG Audio\nFormat version                   : Version 1\nFormat profile                   : Layer 3\nMode                             : Joint stereo\nMode extension                   : MS Stereo\nCodec ID                         : 55\nCodec ID/Hint                    : MP3\nDuration                         : 32mn 18s\nBit rate mode                    : Constant\nBit rate                         : 128 Kbps\nChannel(s)                       : 2 channels\nSampling rate                    : 44.1 KHz\nCompression mode                 : Lossy\nDelay relative to video          : 40ms\nStream size                      : 29.6 MiB (10%)\nAlignment                        : Aligned on interleaves\nInterleave, duration             : 26 ms (0.65 video frame)\nInterleave, preload duration     : 522 ms\nWriting library                  : LAME3.98\n\n","torrent":{"xt":"urn:btih:a4ae06aa9bd74aefc84f13faafcf18cffd289297","amp;dn":"Sexy+Luna+and+Federica+Tommasi","amp;tr":["udp%3A%2F%2Ftracker.openbittorrent.com%3A80","udp%3A%2F%2Fopen.demonii.com%3A1337","udp%3A%2F%2Ftracker.coppersurfer.tk%3A6969","udp%3A%2F%2Fexodus.desync.com%3A6969"],"infoHash":"a4ae06aa9bd74aefc84f13faafcf18cffd289297","infoHashBuffer":{"type":"Buffer","data":[164,174,6,170,155,215,74,239,200,79,19,250,175,207,24,207,253,40,146,151]},"announce":[],"urlList":[]}}